<svg width="37" height="19" viewBox="0 0 37 19" fill="none" xmlns="http://www.w3.org/2000/svg">
<path d="M35.8438 2.56244H1.15632C0.51804 2.56244 9.60156e-05 2.0444 9.60156e-05 1.40622C9.60156e-05 0.767945 0.518136 0.25 1.15632 0.25H35.8438C36.4821 0.25 37 0.768041 37 1.40622C37 2.0444 36.482 2.56244 35.8438 2.56244Z" fill="white"/>
<path d="M1.15632 8.34375H35.8438C36.4821 8.34375 37 8.86179 37 9.49996C37 10.1381 36.482 10.6562 35.8438 10.6562H1.15632C0.51804 10.6562 9.60156e-05 10.1381 9.60156e-05 9.49996C9.60156e-05 8.86179 0.51804 8.34375 1.15632 8.34375Z" fill="white"/>
<path d="M1.1563 16.4375H24.2813C24.9196 16.4375 25.4375 16.9555 25.4375 17.5937C25.4375 18.232 24.9195 18.7499 24.2813 18.7499H1.1563C0.518027 18.7499 8.31039e-05 18.2319 8.31039e-05 17.5937C-1.30075e-05 16.9554 0.518027 16.4375 1.1563 16.4375Z" fill="white"/>
</svg>
